<svg width="189" height="27" viewBox="0 0 189 27" fill="none" xmlns="http://www.w3.org/2000/svg">
<path d="M37.008 0.727999L30.42 26H22.968L18.936 9.368L14.76 26H7.308L0.9 0.727999H7.488L11.124 19.124L15.624 0.727999H22.392L26.712 19.124L30.384 0.727999H37.008ZM52.0473 26.252C49.6713 26.252 47.4873 25.7 45.4953 24.596C43.5273 23.492 41.9553 21.956 40.7793 19.988C39.6273 17.996 39.0513 15.764 39.0513 13.292C39.0513 10.82 39.6273 8.6 40.7793 6.632C41.9553 4.664 43.5273 3.128 45.4953 2.024C47.4873 0.92 49.6713 0.368 52.0473 0.368C54.4233 0.368 56.5953 0.92 58.5633 2.024C60.5553 3.128 62.1153 4.664 63.2433 6.632C64.3953 8.6 64.9713 10.82 64.9713 13.292C64.9713 15.764 64.3953 17.996 63.2433 19.988C62.0913 21.956 60.5313 23.492 58.5633 24.596C56.5953 25.7 54.4233 26.252 52.0473 26.252ZM52.0473 20.636C54.0633 20.636 55.6713 19.964 56.8713 18.62C58.0953 17.276 58.7073 15.5 58.7073 13.292C58.7073 11.06 58.0953 9.284 56.8713 7.964C55.6713 6.62 54.0633 5.948 52.0473 5.948C50.0073 5.948 48.3753 6.608 47.1513 7.928C45.9513 9.248 45.3513 11.036 45.3513 13.292C45.3513 15.524 45.9513 17.312 47.1513 18.656C48.3753 19.976 50.0073 20.636 52.0473 20.636ZM81.2841 26L76.0281 16.46H74.5521V26H68.3961V0.727999H78.7281C80.7201 0.727999 82.4121 1.076 83.8041 1.772C85.2201 2.468 86.2761 3.428 86.9721 4.652C87.6681 5.852 88.0161 7.196 88.0161 8.684C88.0161 10.364 87.5361 11.864 86.5761 13.184C85.6401 14.504 84.2481 15.44 82.4001 15.992L88.2321 26H81.2841ZM74.5521 12.104H78.3681C79.4961 12.104 80.3361 11.828 80.8881 11.276C81.4641 10.724 81.7521 9.944 81.7521 8.936C81.7521 7.976 81.4641 7.22 80.8881 6.668C80.3361 6.116 79.4961 5.84 78.3681 5.84H74.5521V12.104ZM106.532 26L98.0364 14.84V26H91.8804V0.727999H98.0364V11.816L106.46 0.727999H113.696L103.904 13.112L114.056 26H106.532Z" fill="#F2F2F2"/>
<path d="M128.934 26.252C126.558 26.252 124.374 25.7 122.382 24.596C120.414 23.492 118.842 21.956 117.666 19.988C116.514 17.996 115.938 15.764 115.938 13.292C115.938 10.82 116.514 8.6 117.666 6.632C118.842 4.664 120.414 3.128 122.382 2.024C124.374 0.92 126.558 0.368 128.934 0.368C131.31 0.368 133.482 0.92 135.45 2.024C137.442 3.128 139.002 4.664 140.13 6.632C141.282 8.6 141.858 10.82 141.858 13.292C141.858 15.764 141.282 17.996 140.13 19.988C138.978 21.956 137.418 23.492 135.45 24.596C133.482 25.7 131.31 26.252 128.934 26.252ZM128.934 20.636C130.95 20.636 132.558 19.964 133.758 18.62C134.982 17.276 135.594 15.5 135.594 13.292C135.594 11.06 134.982 9.284 133.758 7.964C132.558 6.62 130.95 5.948 128.934 5.948C126.894 5.948 125.262 6.608 124.038 7.928C122.838 9.248 122.238 11.036 122.238 13.292C122.238 15.524 122.838 17.312 124.038 18.656C125.262 19.976 126.894 20.636 128.934 20.636ZM151.331 0.727999V15.848C151.331 17.36 151.703 18.524 152.447 19.34C153.191 20.156 154.283 20.564 155.723 20.564C157.163 20.564 158.267 20.156 159.035 19.34C159.803 18.524 160.187 17.36 160.187 15.848V0.727999H166.343V15.812C166.343 18.068 165.863 19.976 164.903 21.536C163.943 23.096 162.647 24.272 161.015 25.064C159.407 25.856 157.607 26.252 155.615 26.252C153.623 26.252 151.835 25.868 150.251 25.1C148.691 24.308 147.455 23.132 146.543 21.572C145.631 19.988 145.175 18.068 145.175 15.812V0.727999H151.331ZM188.846 0.727999V5.66H182.15V26H175.994V5.66H169.298V0.727999H188.846Z" fill="#F2F2F2"/>
<path d="M128.934 26.252C126.558 26.252 124.374 25.7 122.382 24.596C120.414 23.492 118.842 21.956 117.666 19.988C116.514 17.996 115.938 15.764 115.938 13.292C115.938 10.82 116.514 8.6 117.666 6.632C118.842 4.664 120.414 3.128 122.382 2.024C124.374 0.92 126.558 0.368 128.934 0.368C131.31 0.368 133.482 0.92 135.45 2.024C137.442 3.128 139.002 4.664 140.13 6.632C141.282 8.6 141.858 10.82 141.858 13.292C141.858 15.764 141.282 17.996 140.13 19.988C138.978 21.956 137.418 23.492 135.45 24.596C133.482 25.7 131.31 26.252 128.934 26.252ZM128.934 20.636C130.95 20.636 132.558 19.964 133.758 18.62C134.982 17.276 135.594 15.5 135.594 13.292C135.594 11.06 134.982 9.284 133.758 7.964C132.558 6.62 130.95 5.948 128.934 5.948C126.894 5.948 125.262 6.608 124.038 7.928C122.838 9.248 122.238 11.036 122.238 13.292C122.238 15.524 122.838 17.312 124.038 18.656C125.262 19.976 126.894 20.636 128.934 20.636ZM151.331 0.727999V15.848C151.331 17.36 151.703 18.524 152.447 19.34C153.191 20.156 154.283 20.564 155.723 20.564C157.163 20.564 158.267 20.156 159.035 19.34C159.803 18.524 160.187 17.36 160.187 15.848V0.727999H166.343V15.812C166.343 18.068 165.863 19.976 164.903 21.536C163.943 23.096 162.647 24.272 161.015 25.064C159.407 25.856 157.607 26.252 155.615 26.252C153.623 26.252 151.835 25.868 150.251 25.1C148.691 24.308 147.455 23.132 146.543 21.572C145.631 19.988 145.175 18.068 145.175 15.812V0.727999H151.331ZM188.846 0.727999V5.66H182.15V26H175.994V5.66H169.298V0.727999H188.846Z" fill="#F24B88"/>
</svg>
